<svg width="417" height="277" viewBox="0 0 417 277" fill="none" xmlns="http://www.w3.org/2000/svg">
<path d="M312.146 180.288C336.491 177.853 354.253 156.145 351.818 131.8C349.384 107.455 327.675 89.6935 303.33 92.1279C278.986 94.5624 261.224 116.271 263.658 140.616C266.093 164.961 287.802 182.722 312.146 180.288Z" stroke="#FF6200" stroke-width="1.18336" stroke-linecap="round" stroke-linejoin="round"/>
<path d="M311.89 172.003C331.809 168.802 345.362 150.059 342.161 130.139C338.96 110.22 320.217 96.6673 300.297 99.8685C280.378 103.07 266.825 121.813 270.027 141.732C273.228 161.651 291.971 175.204 311.89 172.003Z" stroke="#FF6200" stroke-width="1.17749" stroke-linecap="round" stroke-linejoin="round"/>
<path d="M282.787 135.939H306.087V169.559" stroke="#FF6200" stroke-width="1.17749" stroke-linecap="round" stroke-linejoin="round"/>
<path d="M70.9004 27.19C70.9004 27.19 70.9004 21.28 62.6204 13C54.3404 4.72 49.0304 0 49.0304 0C49.0304 0 44.8904 13.59 52.5704 21.87C58.2222 27.7065 64.3537 33.0586 70.9004 37.87V27.19Z" fill="#FF6200"/>
<path d="M58.8904 64.11C58.8904 64.11 58.8904 58.2 50.6104 49.92C42.3304 41.64 37.0204 36.92 37.0204 36.92C37.0204 36.92 32.8804 50.51 40.5604 58.79C46.2152 64.6233 52.3465 69.9752 58.8904 74.79V64.11Z" fill="#FF6200"/>
<path d="M70.3804 37.26C70.3804 37.26 71.0004 31.38 80.1104 24.02C89.2204 16.66 95.0004 12.53 95.0004 12.53C95.0004 12.53 97.6804 26.53 89.1604 33.9C82.9256 39.0957 76.2655 43.7587 69.2504 47.84L70.3804 37.26Z" fill="#FF6200"/>
<path d="M55.8704 80.86C55.8704 80.86 57.1104 75.08 66.9304 68.72C76.7504 62.36 82.9304 58.85 82.9304 58.85C82.9304 58.85 84.1304 73.01 74.9304 79.5C68.1842 84.0063 61.0727 87.94 53.6704 91.26L55.8704 80.86Z" fill="#FF6200"/>
<path d="M58.6004 128.39C58.6004 128.39 58.6004 122.48 66.8704 114.21C75.1404 105.94 80.4704 101.21 80.4704 101.21C80.4704 101.21 84.6104 114.81 76.9204 123.08C71.2734 128.918 65.1451 134.27 58.6004 139.08V128.39Z" fill="#FF6200"/>
<path d="M58.4604 140C58.4604 140 59.3004 134.15 52.2804 124.78C45.2604 115.41 40.6704 109.97 40.6704 109.97C40.6704 109.97 34.6704 122.84 41.0804 132.13C45.8484 138.695 51.1569 144.85 56.9504 150.53L58.4604 140Z" fill="#FF6200"/>
<path d="M50.3004 174.38C50.3004 174.38 50.3004 168.47 58.5704 160.2C66.8404 151.93 72.1704 147.2 72.1704 147.2C72.1704 147.2 76.3104 160.8 68.6204 169.07C62.9734 174.908 56.8451 180.26 50.3004 185.07V174.38Z" fill="#FF6200"/>
<path d="M55.8204 205.56C55.8204 205.56 54.3304 199.84 60.2504 189.72C66.1704 179.6 70.1104 173.72 70.1104 173.72C70.1104 173.72 77.5504 185.83 72.2204 195.78C68.2249 202.843 63.6456 209.56 58.5304 215.86L55.8204 205.56Z" fill="#FF6200"/>
<path d="M71.6504 25.72C71.2295 31.8735 70.4717 37.9994 69.3804 44.07C66.1104 60.97 57.9304 71.88 54.6604 87.14C51.3904 102.4 60.7804 122.08 58.2704 141.69C55.7604 161.3 48.1204 172.2 50.2704 185.29C52.4204 198.38 63.9004 233.81 63.9004 233.81" stroke="#263238" stroke-width="1.17749" stroke-linecap="round" stroke-linejoin="round"/>
<path d="M70.3004 41.19L79.2204 34.34" stroke="#263238" stroke-width="1.17749" stroke-linecap="round" stroke-linejoin="round"/>
<path d="M70.7104 33.31L66.9804 26.67" stroke="#263238" stroke-width="1.17749" stroke-linecap="round" stroke-linejoin="round"/>
<path d="M55.1604 86.4C55.1604 86.4 62.6204 80.8 70.3004 75.2" stroke="#263238" stroke-width="1.17749" stroke-linecap="round" stroke-linejoin="round"/>
<path d="M58.8904 74.72C58.8904 74.72 52.6704 62.52 45.6204 54.43" stroke="#263238" stroke-width="1.17749" stroke-linecap="round" stroke-linejoin="round"/>
<path d="M58.8904 136.8C63.1643 128.945 68.5536 121.75 74.8904 115.44" stroke="#263238" stroke-width="1.17749" stroke-linecap="round" stroke-linejoin="round"/>
<path d="M57.4404 145.1C55.173 139.759 52.4671 134.615 49.3504 129.72C44.9904 123.29 44.3504 122.46 44.3504 122.46" stroke="#263238" stroke-width="1.17749" stroke-linecap="round" stroke-linejoin="round"/>
<path d="M50.3004 185.25C52.1894 180.552 54.436 176.005 57.0204 171.65C59.6061 167.614 62.5193 163.798 65.7304 160.24" stroke="#263238" stroke-width="1.17749" stroke-linecap="round" stroke-linejoin="round"/>
<path d="M58.5204 215.85C58.5204 215.85 57.6504 208.77 60.7604 202.76C63.8704 196.75 67.3904 188.86 68.8504 185.76" stroke="#263238" stroke-width="1.17749" stroke-linecap="round" stroke-linejoin="round"/>
<path d="M16.7104 106.16C16.7104 106.16 16.0604 102.46 20.3604 96.37C24.6604 90.28 27.4704 86.72 27.4704 86.72C27.4704 86.72 31.5404 94.79 27.6204 100.82C24.7082 105.086 21.4434 109.1 17.8604 112.82L16.7104 106.16Z" fill="#FF6200"/>
<path d="M28.2504 128.01C28.2504 128.01 27.6004 124.3 31.8904 118.21C36.1804 112.12 39.0104 108.58 39.0104 108.58C39.0104 108.58 43.0804 116.66 39.1604 122.68C36.2495 126.947 32.9846 130.961 29.4004 134.68L28.2504 128.01Z" fill="#FF6200"/>
<path d="M18.1304 112.42C18.1304 112.42 17.1304 108.8 10.5904 105.18C4.05039 101.56 0.000390183 99.58 0.000390183 99.58C0.000390183 99.58 -0.15961 108.58 6.00039 112.36C10.4768 114.934 15.1596 117.132 20.0004 118.93L18.1304 112.42Z" fill="#FF6200"/>
<path d="M31.9604 138.18C31.9604 138.18 30.5504 134.69 23.7004 131.77C16.8504 128.85 12.5804 127.33 12.5804 127.33C12.5804 127.33 13.3704 136.33 19.8704 139.4C24.5909 141.493 29.4779 143.189 34.4804 144.47L31.9604 138.18Z" fill="#FF6200"/>
<path d="M35.4104 168.29C35.4104 168.29 34.7704 164.58 28.6804 160.29C22.5904 156 18.7404 153.61 18.7404 153.61C18.7404 153.61 17.6204 162.61 23.3404 166.94C27.5158 169.971 31.9379 172.647 36.5604 174.94L35.4104 168.29Z" fill="#FF6200"/>
<path d="M36.7504 175.55C36.7504 175.55 35.5904 171.97 38.9704 165.34C42.3504 158.71 44.6504 154.79 44.6504 154.79C44.6504 154.79 49.8204 162.21 46.8004 168.73C44.5081 173.365 41.8321 177.801 38.8004 181.99L36.7504 175.55Z" fill="#FF6200"/>
<path d="M47.1404 205.45C47.1404 205.45 47.5704 201.71 53.4004 197.08C59.2304 192.45 62.9404 189.85 62.9404 189.85C62.9404 189.85 64.5704 198.74 59.1104 203.42C55.1139 206.688 50.8526 209.618 46.3704 212.18L47.1404 205.45Z" fill="#FF6200"/>
<path d="M45.6004 196.23C45.6004 196.23 44.9604 192.52 38.8704 188.23C32.7804 183.94 28.9404 181.55 28.9404 181.55C28.9404 181.55 27.8204 190.55 33.5304 194.88C37.7085 197.913 42.1341 200.589 46.7604 202.88L45.6004 196.23Z" fill="#FF6200"/>
<path d="M45.5204 216.38C45.5204 216.38 45.8404 212.63 41.0404 206.94C36.2404 201.25 33.1204 197.94 33.1204 197.94C33.1204 197.94 29.7604 206.34 34.1904 212C37.4615 216.003 41.0606 219.725 44.9504 223.13L45.5204 216.38Z" fill="#FF6200"/>
<path d="M16.0704 105.29C17.0019 109.107 18.1437 112.869 19.4904 116.56C23.3704 126.8 29.6804 132.75 33.3904 141.97C37.1004 151.19 33.3904 164.54 37.0504 176.56C40.7104 188.58 46.7304 194.56 46.7804 203.04C46.8304 211.52 43.5004 234.95 43.5004 234.95" stroke="#263238" stroke-width="1.17749" stroke-linecap="round" stroke-linejoin="round"/>
<path d="M18.6004 114.87L12.2704 111.55" stroke="#263238" stroke-width="1.17749" stroke-linecap="round" stroke-linejoin="round"/>
<path d="M17.4904 109.98L19.1104 105.41" stroke="#263238" stroke-width="1.17749" stroke-linecap="round" stroke-linejoin="round"/>
<path d="M33.0104 141.58C33.0104 141.58 27.7204 138.88 22.3004 136.2" stroke="#263238" stroke-width="1.17749" stroke-linecap="round" stroke-linejoin="round"/>
<path d="M29.4004 134.72C30.9553 129.805 33.0058 125.06 35.5204 120.56" stroke="#263238" stroke-width="1.17749" stroke-linecap="round" stroke-linejoin="round"/>
<path d="M36.1404 173.59C32.6131 169.127 28.4564 165.199 23.8004 161.93" stroke="#263238" stroke-width="1.17749" stroke-linecap="round" stroke-linejoin="round"/>
<path d="M37.9504 178.64C38.7901 175.052 39.9274 171.54 41.3504 168.14C43.3504 163.63 43.6904 163.04 43.6904 163.04" stroke="#263238" stroke-width="1.17749" stroke-linecap="round" stroke-linejoin="round"/>
<path d="M46.5004 209.44C46.5004 209.44 50.6904 204.3 53.3104 202.37C54.884 201.207 56.362 199.919 57.7304 198.52" stroke="#263238" stroke-width="1.17749" stroke-linecap="round" stroke-linejoin="round"/>
<path d="M46.7804 203.04C45.0839 200.3 43.1817 197.692 41.0904 195.24C39.0304 192.99 36.7896 190.914 34.3904 189.03" stroke="#263238" stroke-width="1.17749" stroke-linecap="round" stroke-linejoin="round"/>
<path d="M44.9504 223.13C44.741 220.259 43.7673 217.497 42.1304 215.13C39.5204 211.69 36.4504 207.13 35.2104 205.34" stroke="#263238" stroke-width="1.17749" stroke-linecap="round" stroke-linejoin="round"/>
<path d="M72.5104 275.38H34.8204C34.0751 275.38 33.3604 275.084 32.8334 274.557C32.3065 274.03 32.0104 273.315 32.0104 272.57L26.6004 230.86H80.7304L75.3204 272.57C75.3204 273.315 75.0244 274.03 74.4974 274.557C73.9704 275.084 73.2557 275.38 72.5104 275.38Z" fill="#FF6200"/>
<path d="M26.5997 229.99H80.252C80.7424 229.989 81.2283 230.084 81.6817 230.271C82.1353 230.458 82.5473 230.733 82.8946 231.08C83.2418 231.426 83.5181 231.838 83.7061 232.291C83.8705 232.687 83.9643 233.108 83.9854 233.536L83.9903 233.72C83.9797 234.704 83.5818 235.644 82.8829 236.337C82.1825 237.03 81.2359 237.42 80.2501 237.42H26.6006C25.6148 237.42 24.6682 237.03 23.9678 236.337C23.2689 235.644 22.871 234.704 22.8604 233.72C22.8604 233.23 22.9576 232.744 23.1456 232.291C23.3335 231.838 23.6089 231.426 23.9561 231.08C24.3034 230.733 24.7155 230.458 25.169 230.271C25.6226 230.084 26.1091 229.989 26.5997 229.99Z" fill="#FF6200" stroke="black"/>
<path d="M164.8 122.37C164.8 122.37 169.91 113.54 171.8 117.26C173.69 120.98 173.2 128.87 170.41 132.59C167.62 136.31 166.69 138.16 165.3 135.37C163.91 132.58 164.8 122.37 164.8 122.37Z" fill="white" stroke="#263238" stroke-width="1.17749" stroke-linecap="round" stroke-linejoin="round"/>
<path d="M103.95 129.33C103.95 129.33 97.9504 121.9 96.5104 127.01C95.0704 132.12 102.09 138.62 103.95 139.55C105.429 140.112 107.029 140.274 108.59 140.02L103.95 129.33Z" fill="white" stroke="#263238" stroke-width="1.17749" stroke-linecap="round" stroke-linejoin="round"/>
<path d="M126.19 161.23C126.19 161.23 60.9004 181.01 60.9004 184.72C60.9004 188.43 59.0304 261.58 60.5204 265.72C62.0104 269.86 74.3304 273.92 81.0504 273.92V275.42H224.32L217.25 235.86C217.25 235.86 257.55 234.36 258.25 231.38C258.95 228.4 222.9 168.72 219.54 166.84C216.18 164.96 165 159.37 159.03 159.37C153.06 159.37 140.37 156.72 126.19 161.23Z" fill="#FF6200"/>
<mask id="mask0_666_179" style="mask-type:luminance" maskUnits="userSpaceOnUse" x="59" y="158" width="200" height="118">
<path d="M81.5506 273.42H81.0506C77.7678 273.42 73.0684 272.423 68.9988 270.904C66.9673 270.146 65.1138 269.266 63.6853 268.33C62.2372 267.381 61.3061 266.426 60.991 265.551C60.9233 265.362 60.8462 264.899 60.7771 264.125C60.7101 263.373 60.6538 262.382 60.6082 261.184C60.517 258.789 60.4681 255.584 60.451 251.837C60.4168 244.344 60.5105 234.7 60.6512 225.066C60.9308 205.907 61.3946 186.769 61.3992 184.749C61.405 184.737 61.423 184.704 61.4695 184.649C61.5567 184.546 61.7049 184.412 61.9285 184.249C62.3735 183.924 63.0462 183.536 63.9305 183.093C65.6941 182.207 68.2266 181.137 71.283 179.951C77.3919 177.58 85.5436 174.762 93.7029 172.058C101.86 169.355 110.018 166.768 116.137 164.856C119.197 163.9 121.747 163.113 123.532 162.565C124.424 162.291 125.125 162.077 125.603 161.931C125.842 161.859 126.025 161.803 126.148 161.765C126.21 161.747 126.257 161.732 126.288 161.722C126.304 161.718 126.316 161.714 126.324 161.712C126.328 161.711 126.331 161.71 126.333 161.71L126.335 161.709C126.335 161.708 126.332 161.698 126.19 161.23L126.336 161.709L126.342 161.707C140.423 157.228 152.933 159.87 159.03 159.87C161.978 159.87 176.23 161.262 190.206 162.896C197.184 163.712 204.078 164.587 209.435 165.375C212.114 165.769 214.404 166.14 216.126 166.47C216.987 166.636 217.701 166.79 218.248 166.93C218.812 167.075 219.15 167.194 219.297 167.276C219.338 167.299 219.434 167.373 219.594 167.534C219.746 167.688 219.932 167.897 220.151 168.161C220.589 168.689 221.141 169.417 221.791 170.322C223.09 172.13 224.766 174.621 226.685 177.571C230.522 183.47 235.319 191.194 239.989 198.955C244.66 206.716 249.202 214.509 252.532 220.545C254.197 223.564 255.556 226.137 256.475 228.046C256.936 229.001 257.281 229.78 257.5 230.361C257.609 230.652 257.683 230.882 257.724 231.053C257.751 231.165 257.756 231.228 257.759 231.257C257.752 231.264 257.744 231.276 257.73 231.289C257.678 231.338 257.587 231.403 257.443 231.478C257.155 231.629 256.724 231.787 256.153 231.946C255.016 232.263 253.409 232.564 251.477 232.843C247.619 233.4 242.529 233.865 237.451 234.239C232.375 234.612 227.321 234.893 223.534 235.08C221.641 235.173 220.065 235.243 218.963 235.29C218.412 235.313 217.978 235.331 217.683 235.343C217.536 235.348 217.423 235.353 217.346 235.356C217.309 235.358 217.28 235.358 217.261 235.359C217.251 235.359 217.244 235.36 217.239 235.36H217.232L216.657 235.382L216.759 235.948L223.722 274.92H81.5506V273.42Z" fill="white" stroke="white"/>
</mask>
<g mask="url(#mask0_666_179)">
<path opacity="0.3" d="M184.58 275.41C94.1104 242.16 98.1504 225.22 98.1504 225.22L68.1504 271.07C72.2639 272.745 76.6334 273.706 81.0704 273.91V275.41H184.58Z" fill="black"/>
<path opacity="0.3" d="M161.18 179.16C161.18 179.16 191.89 177.54 212.09 163L155.53 155.72L161.18 179.16Z" fill="black"/>
</g>
<path d="M126.19 161.23C126.19 161.23 60.9004 181.01 60.9004 184.72C60.9004 188.43 59.0304 261.58 60.5204 265.72C62.0104 269.86 74.3304 273.92 81.0504 273.92V275.42H224.32L217.25 235.86C217.25 235.86 257.55 234.36 258.25 231.38C258.95 228.4 222.9 168.72 219.54 166.84C216.18 164.96 165 159.37 159.03 159.37C153.06 159.37 140.37 156.72 126.19 161.23Z" stroke="#263238" stroke-width="1.17749" stroke-linecap="round" stroke-linejoin="round"/>
<path d="M215.97 217.48L205.27 185.39" stroke="#263238" stroke-width="1.17749" stroke-linecap="round" stroke-linejoin="round"/>
<path d="M73.3304 186.1C73.3304 186.1 91.1604 196.1 96.8704 219.62" stroke="#263238" stroke-width="1.17749" stroke-linecap="round" stroke-linejoin="round"/>
<path d="M73.2504 230.63C73.2504 230.63 61.3104 238.47 58.7004 240.33C56.0904 242.19 55.3404 261.98 57.9504 267.57C60.5604 273.16 71.7604 275.78 79.2204 272.05C86.6804 268.32 90.0404 250.78 87.4304 241.83C84.8204 232.88 73.2504 230.63 73.2504 230.63Z" fill="#263238" stroke="#263238" stroke-width="1.17749" stroke-linecap="round" stroke-linejoin="round"/>
<path d="M116.87 164.96C116.87 164.96 117.99 182.87 121.34 194.81C124.69 206.75 131.04 222.42 131.04 222.42L152.31 205.63L181.04 212.72C181.04 212.72 175.45 183.25 171.34 173.55C167.23 163.85 159.03 156.01 159.03 156.01C159.03 156.01 127.69 151.9 116.87 164.96Z" fill="#263238" stroke="#263238" stroke-width="1.17749" stroke-linecap="round" stroke-linejoin="round"/>
<path d="M120.97 161.98C120.97 161.98 126.19 175.04 131.79 186.23C137.39 197.42 150.79 213.1 154.18 209.74C157.57 206.38 160.89 180.26 160.89 174.29V156.38C160.89 156.38 150.45 164.96 142.24 164.96C134.03 164.96 120.97 161.98 120.97 161.98Z" fill="white"/>
<mask id="mask1_666_179" style="mask-type:luminance" maskUnits="userSpaceOnUse" x="120" y="156" width="41" height="55">
<path d="M120.97 161.98C120.97 161.98 126.19 175.04 131.79 186.23C137.39 197.42 150.79 213.1 154.18 209.74C157.57 206.38 160.89 180.26 160.89 174.29V156.38C160.89 156.38 150.45 164.96 142.24 164.96C134.03 164.96 120.97 161.98 120.97 161.98Z" fill="white"/>
</mask>
<g mask="url(#mask1_666_179)">
<path d="M160.89 156.38C160.89 156.38 150.45 164.96 142.24 164.96C134.03 164.96 120.97 161.96 120.97 161.96C120.97 161.96 123.62 168.59 127.17 176.45C133.591 180.727 141.368 182.472 149 181.35C153.68 180.61 157.6 178.06 160.89 174.54V156.38Z" fill="#FF6200"/>
<path opacity="0.7" d="M160.89 156.38C160.89 156.38 150.45 164.96 142.24 164.96C134.03 164.96 120.97 161.96 120.97 161.96C120.97 161.96 123.62 168.59 127.17 176.45C133.591 180.727 141.368 182.472 149 181.35C153.68 180.61 157.6 178.06 160.89 174.54V156.38Z" fill="white"/>
</g>
<path d="M120.97 161.98C120.97 161.98 126.19 175.04 131.79 186.23C137.39 197.42 150.79 213.1 154.18 209.74C157.57 206.38 160.89 180.26 160.89 174.29V156.38C160.89 156.38 150.45 164.96 142.24 164.96C134.03 164.96 120.97 161.98 120.97 161.98Z" stroke="#263238" stroke-width="1.17749" stroke-linecap="round" stroke-linejoin="round"/>
<path d="M102.55 125.62C102.55 125.62 110.45 151.62 115.55 158.62C120.65 165.62 134.6 172.56 144.82 172.09C155.04 171.62 163.4 161.41 165.26 151.19C167.12 140.97 165.72 117.74 165.72 117.74C165.72 117.74 163.87 107.52 155.97 94.05C148.07 80.58 108.12 91.72 103.97 101.94C99.8204 112.16 102.55 125.62 102.55 125.62Z" fill="white" stroke="#263238" stroke-width="1.17749" stroke-linecap="round" stroke-linejoin="round"/>
<path d="M134.14 146.06C134.14 146.06 138.79 152.56 144.36 145.59" stroke="#263238" stroke-width="1.17749" stroke-linecap="round" stroke-linejoin="round"/>
<path d="M119.74 135.84C119.74 135.84 123.92 132.12 129.5 135.84" stroke="#263238" stroke-width="1.17749" stroke-linecap="round" stroke-linejoin="round"/>
<path d="M145.76 133.05C145.76 133.05 147.62 129.33 154.58 129.33" stroke="#263238" stroke-width="1.17749" stroke-linecap="round" stroke-linejoin="round"/>
<path d="M117.42 128.4C117.42 128.4 120.21 123.76 129.5 122.83" stroke="#263238" stroke-width="2.35497" stroke-linecap="round" stroke-linejoin="round"/>
<path d="M143.39 126.98C143.39 126.98 147.91 117.59 155.98 120.51" stroke="#263238" stroke-width="2.35497" stroke-linecap="round" stroke-linejoin="round"/>
<path d="M144.83 156.72C144.885 157.236 144.782 157.756 144.535 158.212C144.288 158.669 143.909 159.04 143.448 159.277C142.986 159.513 142.464 159.605 141.949 159.539C141.434 159.473 140.952 159.253 140.564 158.908C140.177 158.563 139.903 158.109 139.779 157.605C139.655 157.101 139.686 156.572 139.869 156.086C140.051 155.6 140.376 155.181 140.801 154.884C141.227 154.587 141.732 154.425 142.25 154.42C142.897 154.384 143.532 154.606 144.015 155.037C144.499 155.468 144.792 156.073 144.83 156.72Z" fill="#263238"/>
<path d="M129.78 137.23C129.782 137.509 129.701 137.783 129.548 138.016C129.394 138.249 129.174 138.431 128.917 138.54C128.659 138.648 128.376 138.677 128.101 138.624C127.827 138.571 127.575 138.437 127.377 138.241C127.179 138.044 127.043 137.793 126.988 137.519C126.933 137.245 126.96 136.961 127.067 136.703C127.173 136.445 127.354 136.224 127.586 136.068C127.818 135.913 128.091 135.83 128.37 135.83C128.743 135.83 129.1 135.977 129.364 136.239C129.628 136.502 129.778 136.858 129.78 137.23Z" fill="#263238"/>
<path d="M154.25 131.98C154.25 132.259 154.167 132.532 154.012 132.764C153.857 132.996 153.636 133.177 153.378 133.284C153.119 133.39 152.835 133.417 152.562 133.362C152.288 133.307 152.037 133.172 151.84 132.973C151.643 132.775 151.51 132.523 151.456 132.249C151.403 131.975 151.432 131.691 151.541 131.433C151.649 131.176 151.831 130.956 152.064 130.803C152.298 130.649 152.571 130.568 152.85 130.57C153.035 130.57 153.218 130.607 153.388 130.677C153.559 130.748 153.714 130.852 153.844 130.984C153.974 131.115 154.077 131.27 154.147 131.441C154.216 131.612 154.252 131.795 154.25 131.98Z" fill="#263238"/>
<path d="M124.39 69.41H108.13C98.8404 69.41 86.7604 94.03 87.2204 105.64C87.6804 117.25 97.9104 124.69 100.7 126.08C103.49 127.47 108.59 129.8 108.59 128.4C108.59 127 114.17 115.86 114.17 115.86C114.17 115.86 112.77 122.37 116.49 122.37C120.21 122.37 131.82 110.29 131.82 110.29C131.82 110.29 132.29 120.04 136 120.04C139.71 120.04 147.62 105.64 147.62 105.64L155.98 114.93L158.77 109.36C158.77 109.36 162.02 122.36 164.77 122.36C167.52 122.36 169.88 115.85 171.28 109.36C172.68 102.87 175.46 92.17 170.81 82.41C166.16 72.65 152.7 63.83 141.55 63.83C130.4 63.83 124.39 69.41 124.39 69.41Z" fill="#263238" stroke="#263238" stroke-width="1.17749" stroke-linecap="round" stroke-linejoin="round"/>
<path d="M118.64 73.1199C118.64 73.1199 107.2 74.4399 101.92 77.9599C98.8962 79.8979 96.4721 82.6406 94.9204 85.8799L106.36 80.5999C106.36 80.5999 98.8804 86.3199 98.0004 88.9599C97.2527 91.7097 96.6683 94.5012 96.2504 97.3199L103.25 95.1199C103.25 95.1199 100.34 97.5599 100.61 99.9599C100.88 102.36 101.93 107.88 101.93 107.88L110.29 99.9599L112.49 105.68L119.49 99.9599L119.93 104.36L124.77 97.7599L128.77 101.76L131.41 96.9199C131.41 96.9199 133.61 99.1199 134.49 93.8399C135.37 88.5599 135.81 86.3599 135.81 86.3599L140.65 92.0799L142.41 99.5599L143.73 91.6399L147.73 95.1599L149.05 88.5599L153.89 91.1999L155.65 85.0399L166.21 88.5599C166.21 88.5599 163.13 77.5599 160.49 74.4799C157.85 71.3999 145.09 70.0799 145.09 70.0799L143.77 67.8799C143.77 67.8799 128.77 70.9599 127.05 71.8799C125.592 72.7335 124.248 73.7684 123.05 74.9599" stroke="#6B6B6B" stroke-width="1.17749" stroke-linecap="round" stroke-linejoin="round"/>
<path d="M91.1204 152.65C89.459 150.804 88.5307 148.413 88.5104 145.93C88.5104 141.83 92.9904 132.93 94.1104 132.93C95.2304 132.93 97.4604 135.16 97.4604 135.16C97.4604 135.16 95.6004 144.16 94.8504 147.48C94.2711 149.597 92.9465 151.433 91.1204 152.65Z" fill="white" stroke="#263238" stroke-width="1.17749" stroke-linecap="round" stroke-linejoin="round"/>
<path d="M93.7304 156.38C93.7304 156.38 90.0004 151.9 90.0004 150.04C90.0004 148.18 96.0004 135.11 97.4604 135.11C98.9204 135.11 103.46 136.98 104.55 137.73C105.64 138.48 105.3 142.2 105.3 144.82C105.3 147.44 98.5804 158.99 98.5804 158.99L93.7304 156.38Z" fill="white" stroke="#263238" stroke-width="1.17749" stroke-linecap="round" stroke-linejoin="round"/>
<path d="M101.57 136.98C101.57 136.98 92.2404 153.77 93.7304 156.38C95.2204 158.99 110.15 175.04 110.15 175.04C110.15 175.04 67.6104 238.47 63.5104 244.81C59.4104 251.15 58.6604 260.48 60.5104 265.71C62.3604 270.94 73.5704 275.78 81.4104 275.41C89.2504 275.04 95.2104 265.33 97.4104 256.41C99.6104 247.49 119.85 181.72 121.72 176.53C123.59 171.34 126.19 167.2 123.58 164.59C120.97 161.98 110.9 152.28 110.9 152.28C110.9 152.28 113.9 149.67 113.51 146.68C113.12 143.69 106.79 137.72 101.57 136.98Z" fill="white"/>
<mask id="mask2_666_179" style="mask-type:luminance" maskUnits="userSpaceOnUse" x="59" y="136" width="66" height="140">
<path d="M101.57 136.98C101.57 136.98 92.2404 153.77 93.7304 156.38C95.2204 158.99 110.15 175.04 110.15 175.04C110.15 175.04 67.6104 238.47 63.5104 244.81C59.4104 251.15 58.6604 260.48 60.5104 265.71C62.3604 270.94 73.5704 275.78 81.4104 275.41C89.2504 275.04 95.2104 265.33 97.4104 256.41C99.6104 247.49 119.85 181.72 121.72 176.53C123.59 171.34 126.19 167.2 123.58 164.59C120.97 161.98 110.9 152.28 110.9 152.28C110.9 152.28 113.9 149.67 113.51 146.68C113.12 143.69 106.79 137.72 101.57 136.98Z" fill="white"/>
</mask>
<g mask="url(#mask2_666_179)">
<path d="M97.4604 256.38C99.7004 247.38 119.85 181.75 121.72 176.53C123.59 171.31 126.19 167.2 123.58 164.59C121.23 162.24 112.84 154.15 111.2 152.59H111.14C112.6 154.5 120.32 164.84 119.52 170.82C118.64 177.42 84.7604 257.07 80.3604 262.35C76.9904 266.35 67.9804 268.87 63.9204 269.82C69.0164 273.487 75.1422 275.447 81.4204 275.42C89.2504 275.03 95.2504 265.33 97.4604 256.38Z" fill="#FF6200"/>
<path opacity="0.7" d="M97.4604 256.38C99.7004 247.38 119.85 181.75 121.72 176.53C123.59 171.31 126.19 167.2 123.58 164.59C121.23 162.24 112.84 154.15 111.2 152.59H111.14C112.6 154.5 120.32 164.84 119.52 170.82C118.64 177.42 84.7604 257.07 80.3604 262.35C76.9904 266.35 67.9804 268.87 63.9204 269.82C69.0164 273.487 75.1422 275.447 81.4204 275.42C89.2504 275.03 95.2504 265.33 97.4604 256.38Z" fill="white"/>
</g>
<path d="M101.57 136.98C101.57 136.98 92.2404 153.77 93.7304 156.38C95.2204 158.99 110.15 175.04 110.15 175.04C110.15 175.04 67.6104 238.47 63.5104 244.81C59.4104 251.15 58.6604 260.48 60.5104 265.71C62.3604 270.94 73.5704 275.78 81.4104 275.41C89.2504 275.04 95.2104 265.33 97.4104 256.41C99.6104 247.49 119.85 181.72 121.72 176.53C123.59 171.34 126.19 167.2 123.58 164.59C120.97 161.98 110.9 152.28 110.9 152.28C110.9 152.28 113.9 149.67 113.51 146.68C113.12 143.69 106.79 137.72 101.57 136.98Z" stroke="#263238" stroke-width="1.17749" stroke-linecap="round" stroke-linejoin="round"/>
<path d="M107.16 145.19L105.3 149.72L110.9 152.33L111.14 152.63" stroke="#263238" stroke-width="1.17749" stroke-linecap="round" stroke-linejoin="round"/>
<path d="M218.35 214.22C218.35 214.22 221.71 208.62 225.82 207.13C229.93 205.64 245.97 204.13 252.31 206.38C258.65 208.63 262.38 216.83 263.5 221.3C264.62 225.77 264.25 232.13 260.5 235.48C256.75 238.83 251.92 238.1 246.69 236.6C241.46 235.1 231.02 229.14 225.42 225.78C219.82 222.42 218.73 216.45 218.35 214.22Z" fill="#263238" stroke="#263238" stroke-width="1.17749" stroke-linecap="round" stroke-linejoin="round"/>
<path d="M166.12 207.87C166.12 207.87 136.64 232.13 132.54 234.36C128.44 236.59 130.3 240.71 131.79 242.2C133.28 243.69 142.98 252.65 147.46 255.63C151.94 258.61 158.28 253.39 159.77 252.63C161.26 251.87 159.4 248.52 159.4 248.52C159.4 248.52 170.97 242.18 172.83 236.21C174.08 231.576 174.831 226.823 175.07 222.03C175.07 222.03 222.07 241.03 233.28 245.16C244.49 249.29 251.56 249.64 256.79 244.42C262.02 239.2 262.38 228.37 259.79 222.78C257.2 217.19 240.79 211.96 233.3 211.96C225.81 211.96 172.85 205.61 169.5 206.73L166.12 207.87Z" fill="white"/>
<mask id="mask3_666_179" style="mask-type:luminance" maskUnits="userSpaceOnUse" x="130" y="206" width="132" height="51">
<path d="M166.12 207.87C166.12 207.87 136.64 232.13 132.54 234.36C128.44 236.59 130.3 240.71 131.79 242.2C133.28 243.69 142.98 252.65 147.46 255.63C151.94 258.61 158.28 253.39 159.77 252.63C161.26 251.87 159.4 248.52 159.4 248.52C159.4 248.52 170.97 242.18 172.83 236.21C174.08 231.576 174.831 226.823 175.07 222.03C175.07 222.03 222.07 241.03 233.28 245.16C244.49 249.29 251.56 249.64 256.79 244.42C262.02 239.2 262.38 228.37 259.79 222.78C257.2 217.19 240.79 211.96 233.3 211.96C225.81 211.96 172.85 205.61 169.5 206.73L166.12 207.87Z" fill="white"/>
</mask>
<g mask="url(#mask3_666_179)">
<path d="M256.79 244.44C258.654 242.436 259.958 239.977 260.57 237.31C240.94 236.1 183.36 214.31 177.57 213.93C170.97 213.49 170.09 223.61 163.48 231.93C156.87 240.25 152.96 242.53 147.25 243.41C143.35 244.01 142.73 248.91 142.72 251.97C144.52 253.46 146.21 254.79 147.47 255.63C151.95 258.63 158.29 253.39 159.78 252.63C161.27 251.87 159.41 248.52 159.41 248.52C159.41 248.52 170.98 242.18 172.84 236.21C174.09 231.576 174.841 226.823 175.08 222.03C175.08 222.03 222.08 241.03 233.29 245.16C244.5 249.29 251.56 249.66 256.79 244.44Z" fill="#FF6200"/>
<path opacity="0.7" d="M256.79 244.44C258.654 242.436 259.958 239.977 260.57 237.31C240.94 236.1 183.36 214.31 177.57 213.93C170.97 213.49 170.09 223.61 163.48 231.93C156.87 240.25 152.96 242.53 147.25 243.41C143.35 244.01 142.73 248.91 142.72 251.97C144.52 253.46 146.21 254.79 147.47 255.63C151.95 258.63 158.29 253.39 159.78 252.63C161.27 251.87 159.41 248.52 159.41 248.52C159.41 248.52 170.98 242.18 172.84 236.21C174.09 231.576 174.841 226.823 175.08 222.03C175.08 222.03 222.08 241.03 233.29 245.16C244.5 249.29 251.56 249.66 256.79 244.44Z" fill="white"/>
</g>
<path d="M166.12 207.87C166.12 207.87 136.64 232.13 132.54 234.36C128.44 236.59 130.3 240.71 131.79 242.2C133.28 243.69 142.98 252.65 147.46 255.63C151.94 258.61 158.28 253.39 159.77 252.63C161.26 251.87 159.4 248.52 159.4 248.52C159.4 248.52 170.97 242.18 172.83 236.21C174.08 231.576 174.831 226.823 175.07 222.03C175.07 222.03 222.07 241.03 233.28 245.16C244.49 249.29 251.56 249.64 256.79 244.42C262.02 239.2 262.38 228.37 259.79 222.78C257.2 217.19 240.79 211.96 233.3 211.96C225.81 211.96 172.85 205.61 169.5 206.73L166.12 207.87Z" stroke="#263238" stroke-width="1.17749" stroke-linecap="round" stroke-linejoin="round"/>
<path d="M159.4 248.54L154.55 250.78" stroke="#263238" stroke-width="1.17749" stroke-linecap="round" stroke-linejoin="round"/>
<path d="M173.21 215.71L175.07 222.05L180.3 224.66L177.31 212.35L173.21 215.71Z" fill="#263238" stroke="#263238" stroke-width="1.17749" stroke-linecap="round" stroke-linejoin="round"/>
<path d="M172.65 217.2C177.494 217.2 181.42 214.111 181.42 210.3C181.42 206.489 177.494 203.4 172.65 203.4C167.807 203.4 163.88 206.489 163.88 210.3C163.88 214.111 167.807 217.2 172.65 217.2Z" fill="white" stroke="#263238" stroke-width="1.17749" stroke-linecap="round" stroke-linejoin="round"/>
<path d="M12.8604 275.38H415.58" stroke="#FF6200" stroke-width="1.17749" stroke-linecap="round" stroke-linejoin="round"/>
</svg>
